HIERARCHY
ROOT Hips
{
	OFFSET -0.001795 -0.223333 0.028219
	CHANNELS 6 Xposition Yposition Zposition Zrotation Yrotation Xrotation 
	JOINT LeftUpLeg
	{
		OFFSET 0.069520 -0.091406 -0.006815
		CHANNELS 3 Zrotation Yrotation Xrotation
		JOINT LeftLeg
		{
			OFFSET 0.034277 -0.375199 -0.004496
			CHANNELS 3 Zrotation Yrotation Xrotation
			JOINT LeftFoot
			{
				OFFSET -0.013596 -0.397961 -0.043693
				CHANNELS 3 Zrotation Yrotation Xrotation
				JOINT LeftToe
				{
					OFFSET 0.026358 -0.055791 0.119288
					CHANNELS 3 Zrotation Yrotation Xrotation
					End Site
					{
						OFFSET 0.000000 0.000000 0.000000
					}
				}
			}
		}
	}
	JOINT RightUpLeg
	{
		OFFSET -0.067670 -0.090522 -0.004320
		CHANNELS 3 Zrotation Yrotation Xrotation
		JOINT RightLeg
		{
			OFFSET -0.038290 -0.382569 -0.008850
			CHANNELS 3 Zrotation Yrotation Xrotation
			JOINT RightFoot
			{
				OFFSET 0.015774 -0.398415 -0.042312
				CHANNELS 3 Zrotation Yrotation Xrotation
				JOINT RightToe
				{
					OFFSET -0.025372 -0.048144 0.123348
					CHANNELS 3 Zrotation Yrotation Xrotation
					End Site
					{
						OFFSET 0.000000 0.000000 0.000000
					}
				}
			}
		}
	}
	JOINT Spine
	{
		OFFSET -0.002533 0.108963 -0.026696
		CHANNELS 3 Zrotation Yrotation Xrotation
		JOINT Spine1
		{
			OFFSET 0.005487 0.135180 0.001092
			CHANNELS 3 Zrotation Yrotation Xrotation
			JOINT Spine2
			{
				OFFSET 0.001457 0.052922 0.025425
				CHANNELS 3 Zrotation Yrotation Xrotation
				JOINT Neck
				{
					OFFSET -0.002778 0.213870 -0.042857
					CHANNELS 3 Zrotation Yrotation Xrotation
					JOINT Head
					{
						OFFSET 0.005152 0.064970 0.051349
						CHANNELS 3 Zrotation Yrotation Xrotation
						End Site
						{
							OFFSET 0.000000 0.000000 0.000000
						}
					}
				}
				JOINT LeftShoulder
				{
					OFFSET 0.078845 0.121749 -0.034090
					CHANNELS 3 Zrotation Yrotation Xrotation
					JOINT LeftArm
					{
						OFFSET 0.090977 0.030469 -0.008868
						CHANNELS 3 Zrotation Yrotation Xrotation
						JOINT LeftForeArm
						{
							OFFSET 0.259612 -0.012772 -0.027456
							CHANNELS 3 Zrotation Yrotation Xrotation
							JOINT LeftHand
							{
								OFFSET 0.249234 0.008986 -0.001171
								CHANNELS 3 Zrotation Yrotation Xrotation
								End Site
								{
									OFFSET 0.000000 0.000000 0.000000
								}
							}
						}
					}
				}
				JOINT RightShoulder
				{
					OFFSET -0.081759 0.118833 -0.038615
					CHANNELS 3 Zrotation Yrotation Xrotation
					JOINT RightArm
					{
						OFFSET -0.096012 0.032551 -0.009143
						CHANNELS 3 Zrotation Yrotation Xrotation
						JOINT RightForeArm
						{
							OFFSET -0.253742 -0.013329 -0.021401
							CHANNELS 3 Zrotation Yrotation Xrotation
							JOINT RightHand
							{
								OFFSET -0.255298 0.007772 -0.005559
								CHANNELS 3 Zrotation Yrotation Xrotation
								End Site
								{
									OFFSET 0.000000 0.000000 0.000000
								}
							}
						}
					}
				}
			}
		}
	}
}
MOTION
Frames: 12
Frame Time: 0.050000
0.000000 0.964659 0.000000 -1.051910 5.423807 1.687052 1.836739 -0.059417 -0.174625 1.186125 -0.017196 -2.244644 -2.350759 1.754174 12.633224 0.000000 0.000000 0.000000 -0.097264 0.329837 -3.232443 -2.480172 0.306606 0.368883 1.262377 -2.031483 12.969595 0.000000 0.000000 0.000000 0.320489 -0.186501 4.127098 1.369222 -0.540262 -1.930705 -0.472268 -1.107412 1.106694 1.443918 -0.512122 -5.794008 0.000000 0.000000 0.000000 -13.627753 -0.338873 -1.520641 -43.359402 -3.359515 -3.612074 0.048444 -7.177660 0.244423 0.000000 0.000000 0.000000 13.348556 -0.633936 -1.279994 49.907715 4.040539 -2.921632 -3.922090 4.228339 0.082817 0.000000 0.000000 0.000000 
0.001235 0.964010 0.001198 -1.190676 5.644504 1.874865 1.856991 -0.078491 -0.418387 1.276042 0.001056 -2.812410 -2.390169 2.245433 13.870335 0.000000 0.000000 0.000000 -0.738531 0.317543 -3.180284 -1.917551 0.232323 0.201514 2.109759 -0.329221 12.853724 0.000000 0.000000 0.000000 0.535464 -0.198797 4.151880 0.440398 -0.118502 -1.841726 0.596533 -1.630431 0.603505 0.590431 0.199705 -7.263127 0.000000 0.000000 0.000000 -13.559956 -0.299311 -1.426762 -45.026236 -3.454205 -3.716169 1.776883 -6.264486 0.129423 0.000000 0.000000 0.000000 12.814288 -1.432960 -1.733840 50.825507 3.546781 -3.104437 -4.246037 5.270555 0.068731 0.000000 0.000000 0.000000 
0.002490 0.963152 0.002388 -1.052397 5.587086 1.831383 1.639464 -0.052769 -0.142378 1.214341 -0.024369 -2.124172 -2.154492 1.694420 11.697610 0.000000 0.000000 0.000000 -0.986478 0.299741 -3.022218 -1.539373 0.196024 0.356993 1.635135 -1.006227 12.136426 0.000000 0.000000 0.000000 0.890814 -0.222992 4.284025 0.346089 0.010676 -3.612847 -0.111338 -1.482153 2.410994 0.411493 0.380136 -7.746273 0.000000 0.000000 0.000000 -13.231665 -0.347231 -1.381613 -45.771029 -3.080492 -4.068758 1.678487 -8.114180 0.171787 0.000000 0.000000 0.000000 13.877922 -1.150747 -1.598202 50.238698 2.877937 -3.532356 -3.616891 5.286442 0.088220 0.000000 0.000000 0.000000 
0.003504 0.963522 0.003603 -1.296286 5.789524 1.860136 1.814077 -0.088449 -0.567319 1.265708 -0.043926 -1.768674 -2.179093 1.963068 12.341397 0.000000 0.000000 0.000000 -1.055745 0.328523 -3.347604 -1.350064 0.192487 0.737457 1.986171 -0.530772 12.817152 0.000000 0.000000 0.000000 0.756176 -0.193759 3.830758 0.063811 0.092470 -2.646235 0.933157 -2.365641 2.140603 -0.987176 1.257248 -7.172209 0.000000 0.000000 0.000000 -12.663084 0.707311 -1.642664 -47.487231 -3.262229 -4.179745 2.501962 -7.967188 0.125775 0.000000 0.000000 0.000000 13.050307 -0.845754 -1.549104 51.011851 2.572407 -3.668856 -3.908318 5.014177 0.074881 0.000000 0.000000 0.000000 
0.004261 0.963606 0.004874 -1.089971 6.012416 1.826574 1.756195 -0.072385 -0.356632 1.042626 -0.022779 -1.815500 -2.488838 1.412769 12.177874 0.000000 0.000000 0.000000 -1.369360 0.331937 -3.449791 -1.267750 0.203739 1.182605 1.886567 -0.671628 12.770137 0.000000 0.000000 0.000000 0.608767 -0.194243 3.991877 0.422807 -0.024514 -3.490540 0.405332 -2.167975 2.682971 -1.082970 1.305345 -6.431094 0.000000 0.000000 0.000000 -12.234409 0.526713 -1.571041 -48.248542 -2.533017 -4.570150 2.318659 -8.740219 0.145526 0.000000 0.000000 0.000000 13.092989 -1.068489 -1.569881 51.047485 1.369983 -4.217936 -3.406846 6.098177 0.092049 0.000000 0.000000 0.000000 
0.004776 0.963449 0.006235 -1.157177 6.550280 1.669212 1.680333 -0.088489 -0.594030 1.461531 -0.092699 -1.041050 -2.847937 0.737864 11.830646 0.000000 0.000000 0.000000 -1.307468 0.331637 -3.452840 -1.402059 0.229698 1.352171 1.857686 -0.884444 13.489977 0.000000 0.000000 0.000000 0.452969 -0.193985 4.146100 0.601226 -0.088711 -3.646775 0.832465 -2.860769 3.003433 -1.838919 1.839866 -6.769015 0.000000 0.000000 0.000000 -12.311304 1.521923 -1.955191 -49.081976 -2.225633 -4.822445 2.760704 -8.823936 0.122648 0.000000 0.000000 0.000000 12.203647 -1.256980 -1.635338 52.025318 1.183594 -4.410635 -4.444687 5.712055 0.061111 0.000000 0.000000 0.000000 
0.005049 0.962913 0.007695 -1.121469 6.494912 1.755274 1.782827 -0.083082 -0.482058 1.322861 -0.067899 -1.311923 -3.021129 0.502535 11.961689 0.000000 0.000000 0.000000 -1.308817 0.347599 -3.631356 -1.624085 0.267220 1.538871 2.016798 -0.603482 13.529421 0.000000 0.000000 0.000000 0.440982 -0.198098 4.242310 0.705663 -0.140688 -3.547302 0.656837 -2.979443 2.806082 -1.767050 1.778151 -6.709636 0.000000 0.000000 0.000000 -12.093018 1.960287 -2.116268 -49.710833 -0.968958 -5.370351 2.507934 -9.049511 0.145178 0.000000 0.000000 0.000000 11.866620 -1.614424 -1.786446 52.509358 0.646589 -4.658233 -4.652607 5.764758 0.053832 0.000000 0.000000 0.000000 
0.005211 0.962666 0.009209 -1.196666 6.541195 1.845156 1.735051 -0.091696 -0.612856 1.645986 -0.104491 -1.136153 -3.130114 0.290182 11.880600 0.000000 0.000000 0.000000 -1.136410 0.348760 -3.603322 -1.822816 0.279917 1.279898 2.051907 -0.649047 13.885599 0.000000 0.000000 0.000000 0.370065 -0.207776 4.510817 0.868512 -0.193359 -3.879660 0.586949 -3.086714 2.789498 -1.675509 1.675170 -6.050672 0.000000 0.000000 0.000000 -11.330949 2.573818 -2.287539 -49.950228 0.635829 -6.040567 2.525365 -9.458235 0.150708 0.000000 0.000000 0.000000 10.659774 -2.304297 -1.972478 53.280316 -0.250936 -5.111212 -5.106867 5.325950 0.046626 0.000000 0.000000 0.000000 
0.005345 0.962998 0.010516 -1.241140 6.534970 2.124261 1.799715 -0.099901 -0.693014 1.709292 -0.084491 -1.653610 -3.351037 0.265188 12.602810 0.000000 0.000000 0.000000 -1.090814 0.352336 -3.623112 -1.893185 0.271274 0.943842 2.182628 -0.437408 13.992150 0.000000 0.000000 0.000000 0.454364 -0.206619 4.382995 0.684144 -0.114137 -3.872870 0.820702 -3.238198 2.604174 -1.542974 1.552530 -5.754383 0.000000 0.000000 0.000000 -10.599821 3.261455 -2.473776 -50.402124 2.103421 -6.670343 2.303838 -9.321219 0.167778 0.000000 0.000000 0.000000 9.595095 -2.799017 -2.092134 53.716332 -0.845160 -5.396397 -5.873051 4.295145 0.047089 0.000000 0.000000 0.000000 
0.005567 0.963077 0.011578 -1.173697 6.829851 2.585481 1.635354 -0.120605 -1.006020 1.946237 -0.087930 -1.956385 -3.586388 -0.001087 12.769438 0.000000 0.000000 0.000000 -1.138275 0.370536 -3.826094 -1.964245 0.252286 0.409376 2.115376 -0.689875 14.525411 0.000000 0.000000 0.000000 0.447917 -0.199039 4.214594 0.766657 -0.120909 -4.353148 0.731471 -3.448633 2.730469 -1.600574 1.583852 -5.570655 0.000000 0.000000 0.000000 -9.486890 3.979276 -2.629527 -50.714697 3.930562 -7.465114 1.815249 -9.735865 0.214504 0.000000 0.000000 0.000000 8.088395 -3.436168 -2.176132 54.556814 -2.424397 -6.195772 -6.356346 4.152523 0.043685 0.000000 0.000000 0.000000 
0.005724 0.963133 0.012335 -1.210618 7.183472 2.781794 1.694182 -0.139220 -1.225811 1.968102 -0.079719 -2.128675 -3.805852 -0.128448 13.144225 0.000000 0.000000 0.000000 -1.119092 0.379498 -3.921160 -2.055123 0.256816 0.273468 2.173901 -0.605439 14.794183 0.000000 0.000000 0.000000 0.505931 -0.209443 4.351926 0.716228 -0.085033 -4.534032 0.796063 -3.614410 2.815249 -1.570567 1.583683 -5.966154 0.000000 0.000000 0.000000 -8.752324 4.607665 -2.792426 -50.752492 5.195654 -7.991033 1.670259 -9.184609 0.213534 0.000000 0.000000 0.000000 7.022723 -4.274100 -2.382493 54.551568 -3.660260 -6.745555 -6.116295 3.638168 0.058612 0.000000 0.000000 0.000000 
0.005775 0.963011 0.012989 -1.255335 7.493643 3.106026 1.827579 -0.171938 -1.616977 1.790498 -0.066707 -2.084576 -3.805133 -0.114069 13.086840 0.000000 0.000000 0.000000 -1.100577 0.398567 -4.123536 -1.973401 0.234615 0.027893 2.034972 -0.893415 15.064530 0.000000 0.000000 0.000000 0.562602 -0.219136 4.462095 0.623794 -0.038445 -4.605128 0.938942 -3.788016 2.649060 -1.306960 1.393298 -6.020442 0.000000 0.000000 0.000000 -7.613554 5.674607 -3.063592 -50.928735 7.156696 -8.797490 1.442728 -9.344879 0.234492 0.000000 0.000000 0.000000 5.388229 -5.545201 -2.669111 55.140320 -5.588870 -7.669697 -5.717017 4.426382 0.046566 0.000000 0.000000 0.000000 
